<svg id="fe60f222-7b97-4bb3-b84a-b1a7382d13f5" data-name="weather_app" xmlns="http://www.w3.org/2000/svg" viewBox="0 0 100 100"><defs><style>.f212b104-11ef-4a69-8e5f-aca01eb7a332{fill:#f2f2f2;}.b9472cef-ed93-4435-a83f-f2720cca9854{fill:#8372b2;}.bed64d85-835e-4142-90c0-0707191a1216{fill:#ec6789;}.f8f1b863-ca1e-4ef5-a534-4d7961346b68{fill:#17a296;}.ecce95ed-bb76-425f-a29c-3048728c7590{fill:#629930;}.a5342b59-4e7a-4e6d-8c35-f71219c871fb{fill:#e66b5e;}.e978cc7f-06d7-4752-ba8a-45d67d4a2d92{fill:#5696d1;}.bcb859fe-7f05-4afe-95b6-b49ee3768e15{fill:#dce1ea;}.a6077c97-5650-4cfb-8bd7-50bb0cd7bb84{font-size:5px;fill:#757576;font-family:Consolas-Bold, Consolas;font-weight:700;letter-spacing:0.01em;}.b8f28f44-7124-4f55-8f29-a3258e338311{fill:#6e7aba;}.be4f754e-7e6e-4dc2-896f-0e3f8d1ed3ec{fill:#fef7fa;}</style></defs><rect class="f212b104-11ef-4a69-8e5f-aca01eb7a332" width="100" height="100"/><path class="b9472cef-ed93-4435-a83f-f2720cca9854" d="M4.63,34.09,7.57,34l.63,4.82L9.3,34,12,34l1,4.92L13.78,34h2.6l-1.63,7.75h-3l-1.07-4.3-1,4.41-2.85,0Z" transform="translate(0 0)"/><path class="bed64d85-835e-4142-90c0-0707191a1216" d="M26.2,34.23l0,1.9H23.46l0,1h2.32l0,1.75-2.28,0v1.3h2.65v1.71l-5,0-.05-7.69Z" transform="translate(0 0)"/><path class="f8f1b863-ca1e-4ef5-a534-4d7961346b68" d="M39.25,34.12h-2.7l-2.8,7.81,2.59,0,.33-1.1h2.61L39.52,42l2.68,0Zm-.75,4.71-1.13,0,.56-2Z" transform="translate(0 0)"/><path class="ecce95ed-bb76-425f-a29c-3048728c7590" d="M47,34.26l0,2.14,2.12,0,0,5.75,2.6,0,0-5.8,2.09,0V34.22Z" transform="translate(0 0)"/><path class="a5342b59-4e7a-4e6d-8c35-f71219c871fb" d="M61.34,34.15l2.63,0V37h2V34.19l2.67,0c0,2.62-.06,5.23-.08,7.85H66.18l-.12-3H63.92l-.08,3-2.5,0Z" transform="translate(0 0)"/><path class="b9472cef-ed93-4435-a83f-f2720cca9854" d="M80.48,34.39v1.89l-2.72,0,0,1h2.32l0,1.75-2.28,0v1.29h2.64v1.72l-5,.05c0-2.57,0-5.13,0-7.69Z" transform="translate(0 0)"/><path class="e978cc7f-06d7-4752-ba8a-45d67d4a2d92" d="M93.62,38.91a2.54,2.54,0,0,0,1.68-2.06,2.63,2.63,0,0,0-2.21-2.7l-4.48,0q0,3.95,0,7.88l2.62,0V39.4c.43.88.87,1.75,1.3,2.63l2.8,0Zm-2.56-1.4,0-1.34c.15,0,1.12-.18,1.58.24a.58.58,0,0,1,.23.37.64.64,0,0,1-.2.46C92.26,37.74,91.17,37.53,91.06,37.51Z" transform="translate(0 0)"/><path class="bcb859fe-7f05-4afe-95b6-b49ee3768e15" d="M13.85,53.39l55.89,0a6,6,0,0,1-.26,12h-55a6.21,6.21,0,0,1-.67-12.07Z" transform="translate(0 0)"/><text class="a6077c97-5650-4cfb-8bd7-50bb0cd7bb84" transform="translate(13.22 60.83)">City...</text><circle class="b8f28f44-7124-4f55-8f29-a3258e338311" cx="83.26" cy="59.75" r="6.25"/><path class="be4f754e-7e6e-4dc2-896f-0e3f8d1ed3ec" d="M82.66,55.75a3.43,3.43,0,1,0,3.43,3.43A3.42,3.42,0,0,0,82.66,55.75ZM83,61.58a2.37,2.37,0,1,1,2.12-2.43A2.39,2.39,0,0,1,83,61.58Z" transform="translate(0 0)"/><path class="be4f754e-7e6e-4dc2-896f-0e3f8d1ed3ec" d="M84.21,61.75l.64-.8,2.4,2.18-.63.75Z" transform="translate(0 0)"/></svg>