<svg id="e29a30eb-506c-4828-a72c-7483365ab6b4" data-name="Layer 2" xmlns="http://www.w3.org/2000/svg" viewBox="0 0 85.64 77.64"><defs><style>.b56d0121-2daf-455b-9f0a-43b4d2161c5c{fill:#2e72ac;}</style></defs><path class="b56d0121-2daf-455b-9f0a-43b4d2161c5c" d="M70,15.92l20.83-.21c-.13,34.74-12.31,63.48-33,71.94a36.45,36.45,0,0,1-20.34,2.12C22,86.76,6.05,72.21,5.53,52.64,5,31.56,22.55,14.18,40.89,12.83c11.76-.88,20.89,5,24.5,7.67A59.78,59.78,0,0,1,64.72,31,60.1,60.1,0,0,1,60.5,45.77C55,35.58,42.52,32.91,35,38.2c-6.42,4.5-8.37,14.16-4.78,20.89s12.06,9.43,17.83,8.37C60.12,65.25,69.05,44.69,70,15.92Z" transform="translate(-5.51 -12.74)"/><path class="b56d0121-2daf-455b-9f0a-43b4d2161c5c" d="M91,47.92A59.49,59.49,0,0,1,81.12,72,58.63,58.63,0,0,1,68.64,85l-.09,3.47,22.61-.14Q91.07,68.12,91,47.92Z" transform="translate(-5.51 -12.74)"/></svg>