<svg id="a2acefd9-2277-4e77-83fe-acb2ef12b2cd" data-name="Layer 2" xmlns="http://www.w3.org/2000/svg" viewBox="0 0 112.96 79.57"><defs><style>.e9cc604e-4a92-4c77-b4d6-84bfbbf1893e{fill:#1f1f1f;}.aa31ae04-2319-45f9-ad5b-ccdfeee73c32,.bc49efec-ef65-45b8-95ca-7c033bdef509{fill:#f2f2f2;}.bf41f04b-cf54-4fa5-8cae-d85dd83f0bd5{fill:#68337f;}.bc49efec-ef65-45b8-95ca-7c033bdef509{font-size:4.09px;font-family:Consolas;letter-spacing:0em;}.b3b853ba-a2b4-4fb2-8d7c-cbd72c4f27ee{fill:none;stroke:#f2f2f2;stroke-miterlimit:10;stroke-width:0.5px;}</style></defs><path class="e9cc604e-4a92-4c77-b4d6-84bfbbf1893e" d="M171.15,95.22h-20.5l1.54-9,17.34,0Z" transform="translate(-81.35 -17.26)"/><path class="aa31ae04-2319-45f9-ad5b-ccdfeee73c32" d="M193.44,85.78a2.46,2.46,0,0,1-1.65.53H129.4a2.11,2.11,0,0,1-1.57-.44,1.89,1.89,0,0,1-.57-1.39V74.66h67.05V84.1A2.55,2.55,0,0,1,193.44,85.78Z" transform="translate(-81.35 -17.26)"/><path class="e9cc604e-4a92-4c77-b4d6-84bfbbf1893e" d="M194.31,75.69h-67V39.87a2.53,2.53,0,0,1,.7-1.63,2.49,2.49,0,0,1,1.73-.75c34.66-.09,60-.1,61.84,0a3,3,0,0,1,1.94.71,2.71,2.71,0,0,1,.84,1.83Z" transform="translate(-81.35 -17.26)"/><rect class="aa31ae04-2319-45f9-ad5b-ccdfeee73c32" x="48.66" y="22.84" width="61.55" height="33.35"/><circle class="e9cc604e-4a92-4c77-b4d6-84bfbbf1893e" cx="79.41" cy="63.89" r="1.3"/><rect class="aa31ae04-2319-45f9-ad5b-ccdfeee73c32" x="66.58" y="77.96" width="25.71" height="1.54"/><rect class="aa31ae04-2319-45f9-ad5b-ccdfeee73c32" x="48.66" y="22.84" width="61.55" height="33.35"/><path class="e9cc604e-4a92-4c77-b4d6-84bfbbf1893e" d="M111.46,96.42a1.13,1.13,0,0,1-.76.35c-.71.08-7.77.08-17.39,0a1,1,0,0,1-.8-.38,1,1,0,0,1-.15-.67c0-20.84,0-35.91,0-36.59a.79.79,0,0,1,.85-1c.67,0,7.82-.05,17.6,0a1,1,0,0,1,.63.37,1.15,1.15,0,0,1,.21.6c0,.87,0,34.08,0,36.65A1,1,0,0,1,111.46,96.42Z" transform="translate(-81.35 -17.26)"/><rect class="aa31ae04-2319-45f9-ad5b-ccdfeee73c32" x="11.96" y="41.85" width="17.4" height="36.72"/><path class="e9cc604e-4a92-4c77-b4d6-84bfbbf1893e" d="M105,58.13a2.5,2.5,0,0,1-.42,2.23c-.35.32-.69.23-2.62.21s-2.24.07-2.6-.25A2.51,2.51,0,0,1,99,58.14Z" transform="translate(-81.35 -17.26)"/><path class="e9cc604e-4a92-4c77-b4d6-84bfbbf1893e" d="M123.67,75H101.06l-1.69,2.1L98.94,75H96.13V65.11h27.54Z" transform="translate(-81.35 -17.26)"/><rect class="aa31ae04-2319-45f9-ad5b-ccdfeee73c32" x="17.55" y="50.89" width="14.47" height="0.16"/><rect class="aa31ae04-2319-45f9-ad5b-ccdfeee73c32" x="17.64" y="52.29" width="19.68" height="0.16"/><rect class="aa31ae04-2319-45f9-ad5b-ccdfeee73c32" x="17.59" y="53.32" width="19.68" height="0.16"/><rect class="aa31ae04-2319-45f9-ad5b-ccdfeee73c32" x="17.57" y="54.78" width="13.12" height="0.16"/><path class="bf41f04b-cf54-4fa5-8cae-d85dd83f0bd5" d="M81.35,89.07H104l1.69,2.1.42-2.1h2.82V79.14H81.35Z" transform="translate(-81.35 -17.26)"/><rect class="aa31ae04-2319-45f9-ad5b-ccdfeee73c32" x="91.65" y="82.18" width="14.47" height="0.16" transform="translate(116.42 147.28) rotate(-180)"/><rect class="aa31ae04-2319-45f9-ad5b-ccdfeee73c32" x="86.35" y="83.59" width="19.68" height="0.16" transform="translate(111.03 150.08) rotate(-180)"/><rect class="aa31ae04-2319-45f9-ad5b-ccdfeee73c32" x="86.4" y="84.61" width="19.68" height="0.16" transform="translate(111.13 152.13) rotate(-180)"/><rect class="aa31ae04-2319-45f9-ad5b-ccdfeee73c32" x="92.98" y="86.07" width="13.12" height="0.16" transform="translate(117.72 155.05) rotate(-180)"/><path class="e9cc604e-4a92-4c77-b4d6-84bfbbf1893e" d="M146.63-22.79" transform="translate(-81.35 -17.26)"/><path class="e9cc604e-4a92-4c77-b4d6-84bfbbf1893e" d="M103.17,31.58A78.8,78.8,0,0,1,150,74.29l42.75.26a158.47,158.47,0,0,0-87.12-48.69,1.9,1.9,0,0,1-.11,1.64c-.49.64-1.38.37-2,.89C103.08,28.77,102.74,29.6,103.17,31.58Z" transform="translate(-81.35 -17.26)"/><path class="bf41f04b-cf54-4fa5-8cae-d85dd83f0bd5" d="M117.15,17.31c-2.66-.76-7.21,6.12-9.29,11.67-2.73,7.28-2.92,16.79-.1,17.79,2.62.93,7.79-5.45,10.09-11.56C120.69,27.64,120,18.13,117.15,17.31Zm-8.54,26.36c-1.59-.6-.61-7.74,1.43-13.21,1.59-4.27,4.78-10,6.32-9.59s1.44,7.67-.89,13.64C113.65,39.21,110.07,44.23,108.61,43.67Z" transform="translate(-81.35 -17.26)"/><path class="bf41f04b-cf54-4fa5-8cae-d85dd83f0bd5" d="M120.68,19.31c-2.66-.76-7.21,6.11-9.29,11.67-2.73,7.27-2.92,16.79-.1,17.79,2.62.92,7.79-5.46,10.09-11.57C124.22,29.64,123.53,20.13,120.68,19.31Zm-8.54,26.36c-1.59-.6-.61-7.74,1.43-13.21,1.59-4.28,4.78-10,6.32-9.59s1.44,7.67-.89,13.64C117.18,41.21,113.6,46.22,112.14,45.67Z" transform="translate(-81.35 -17.26)"/><path class="e9cc604e-4a92-4c77-b4d6-84bfbbf1893e" d="M112.6,35.46l2.92-7.39c1.36.35,2.75.72,4.16,1.13,2.25.64,4.41,1.32,6.47,2l-4.33,9.53c-1.35-.92-2.83-1.87-4.46-2.8S114.11,36.17,112.6,35.46Z" transform="translate(-81.35 -17.26)"/><path class="e9cc604e-4a92-4c77-b4d6-84bfbbf1893e" d="M103.56,23.77a1.57,1.57,0,0,0-1.78-1.13,1.55,1.55,0,0,0-1.27,1.59,4.58,4.58,0,0,1,1.22.33,4.91,4.91,0,0,1,.88.5,1.17,1.17,0,0,1,1-1.29Z" transform="translate(-81.35 -17.26)"/><path class="e9cc604e-4a92-4c77-b4d6-84bfbbf1893e" d="M94.07,24.29a3.36,3.36,0,0,0-.86,2.7c.32,2.23,3.31,4.2,7.52,4.16l2-6.22C99.24,22.61,95.64,22.59,94.07,24.29Zm1.39,3.36a1.49,1.49,0,0,1,1.19-2.74,1.53,1.53,0,0,1,.7,2.13A1.51,1.51,0,0,1,95.46,27.65Zm4.59.05a1.05,1.05,0,0,1-1.32.64,1.06,1.06,0,0,1-.67-1.26,1.08,1.08,0,0,1,1.41-.71A1.07,1.07,0,0,1,100.05,27.7Z" transform="translate(-81.35 -17.26)"/><path class="e9cc604e-4a92-4c77-b4d6-84bfbbf1893e" d="M100.87,32.39a1.56,1.56,0,0,1-2.3-2.07,4.3,4.3,0,0,0,1.2.4,4.75,4.75,0,0,0,1,.07,1.29,1.29,0,0,0-.27.65A1.24,1.24,0,0,0,100.87,32.39Z" transform="translate(-81.35 -17.26)"/><text class="bc49efec-ef65-45b8-95ca-7c033bdef509" transform="translate(90.77 50.5)">LOGIN</text><rect class="b3b853ba-a2b4-4fb2-8d7c-cbd72c4f27ee" x="83.52" y="29.61" width="23.16" height="22.22"/></svg>