<svg id="a48aa38e-c889-4823-9b1e-cb2770583c28" data-name="Layer 4" xmlns="http://www.w3.org/2000/svg" viewBox="0 0 100 100"><defs><style>.e78df134-1df3-4cb3-8ac0-8ecf50be72bd,.e882e406-d6cc-4b9d-9666-ae6e84a3251c{fill:#68337f;}.e78df134-1df3-4cb3-8ac0-8ecf50be72bd{opacity:0.78;}.a27b1651-afe6-4033-8d0a-5872cbe18889{fill:#1f1f1f;}.ae57a1b0-db8c-48a5-a5b2-5d5a1f207143,.e882e406-d6cc-4b9d-9666-ae6e84a3251c{font-size:34.63px;letter-spacing:0.01em;}.ae57a1b0-db8c-48a5-a5b2-5d5a1f207143,.fe81d1cf-7246-416d-9417-10045ff61a14,.ff611938-188c-4d84-b98a-164db37564f3{fill:#f2f2f2;}.ae57a1b0-db8c-48a5-a5b2-5d5a1f207143,.e882e406-d6cc-4b9d-9666-ae6e84a3251c,.ff611938-188c-4d84-b98a-164db37564f3{font-family:Consolas-Bold, Consolas;font-weight:700;}.ff611938-188c-4d84-b98a-164db37564f3{font-size:16.82px;letter-spacing:0.01em;}</style></defs><rect class="e78df134-1df3-4cb3-8ac0-8ecf50be72bd" width="100" height="100"/><path class="a27b1651-afe6-4033-8d0a-5872cbe18889" d="M100,60.88c-2.84-3.14-6-6.36-9.58-9.58A136.63,136.63,0,0,0,60.63,30.85a2.63,2.63,0,0,1-.2,1.5c-.47,1-1.43,1-1.78,1.92a2.2,2.2,0,0,0,.12,1.7A35.16,35.16,0,0,1,78.7,66.74,35.29,35.29,0,0,1,55.81,100H100Z" transform="translate(0 0)"/><text class="ae57a1b0-db8c-48a5-a5b2-5d5a1f207143" transform="translate(10.95 44.09)">MO N</text><text class="e882e406-d6cc-4b9d-9666-ae6e84a3251c" transform="translate(50.06 44.1)">O</text><text class="ff611938-188c-4d84-b98a-164db37564f3" transform="translate(12.06 59.4)">PROTOCOL</text><ellipse class="fe81d1cf-7246-416d-9417-10045ff61a14" cx="52.61" cy="30.09" rx="2.54" ry="3.47" transform="translate(18.68 80.32) rotate(-85.73)"/><path class="a27b1651-afe6-4033-8d0a-5872cbe18889" d="M59.17,27.33A1.68,1.68,0,0,0,57.38,26a1.66,1.66,0,0,0-1.48,1.59,4.84,4.84,0,0,1,1.26.45,4.38,4.38,0,0,1,.9.59,1.25,1.25,0,0,1,1.11-1.29Z" transform="translate(0 0)"/><path class="a27b1651-afe6-4033-8d0a-5872cbe18889" d="M49.09,27.13A3.62,3.62,0,0,0,48,29.92c.17,2.38,3.18,4.7,7.63,5l2.58-6.43C54.69,25.76,50.89,25.46,49.09,27.13Zm1.2,3.66A1.58,1.58,0,0,1,51.77,28a1.62,1.62,0,0,1,.57,2.31A1.6,1.6,0,0,1,50.29,30.79Zm4.85.42a1.1,1.1,0,0,1-2-.81,1.15,1.15,0,0,1,1.55-.64A1.12,1.12,0,0,1,55.14,31.21Z" transform="translate(0 0)"/><path class="a27b1651-afe6-4033-8d0a-5872cbe18889" d="M55.64,36.24a1.65,1.65,0,0,1-2.27-2.37,5.16,5.16,0,0,0,1.24.51,4.71,4.71,0,0,0,1.06.16,1.36,1.36,0,0,0-.33.66A1.33,1.33,0,0,0,55.64,36.24Z" transform="translate(0 0)"/></svg>